<svg focusable="false" preserveAspectRatio="xMidYMid meet" xmlns="http://www.w3.org/2000/svg" stroke="currentColor" width="35%" height="35%" viewBox="0 0 48 48" aria-hidden="true"><path fill="none" stroke-miterlimit="10" stroke-width=".72" d="M15 25L13 25M11 30L9 30M11 33L9.165 33"></path><path fill="none" stroke-linecap="square" stroke-miterlimit="10" stroke-width=".72" d="M39 38L9 38"></path><path fill="none" stroke-miterlimit="10" stroke-width=".72" d="M39 38V16h-6c0 11-.181 15.363-1.67 22M39 21L37 21M39 19L37 19M34 33L32 33"></path><path fill="none" stroke-miterlimit="10" stroke-width=".72" d="M34.001 16c0 8-.001 13 3.999 21.979M15.8 38c-.525-2.585-.8-5.26-.8-8 0-3.664.493-7.213 1.415-10.585l-3.938-3.938C10.254 19.836 9 24.772 9 30c0 2.761.35 5.44 1.007 7.995"></path><path fill="none" stroke-linecap="round" stroke-miterlimit="10" stroke-width=".72" d="M11.392 18L15.733 22.341"></path><path fill="none" stroke-miterlimit="10" stroke-width=".72" d="M29 38L29 12 19 12 19 38M20 15L28 15M20 18L28 18M20 21L28 21M20 24L28 24M20 27L28 27M20 30L28 30M20 33L28 33"></path><path fill="none" stroke-linecap="round" stroke-miterlimit="10" stroke-width=".72" d="M24 12L24 9"></path><title>Milan Skyscrapers</title></svg>